# xmcd
#
# Track frame offsets:
#	150
#	14795
#	28906
#	42707
#	55154
#	70427
#	85358
#	100448
#	115205
#	129083
#	142382
#	156196
#	169563
#	184028
#	198998
#	213494
#	224520
#	237614
#	249019
#	262307
#	277058
#	290951
#	304432
#	316674
#	331221
#	345111
#
# Disc length: 4782 seconds
#
# Revision: 3
# Processed by: cddbd v1.5.2PL0 Copyright (c) Steve Scherf et al.
# Submitted via: audiograbber 1.83.01
#
DISCID=a412ac1a
DTITLE=Boogie Woogie Classics - Boogie Woogie Classics - Boot that Thing
DYEAR=1945
DGENRE=Jazz Piano
TTITLE0=Meade Lux Lewis - Honky Tonk Train Blues
TTITLE1=Cow Cow Davenport - Cow Cow Blues
TTITLE2=Cow Cow Davenport - State Street Jive
TTITLE3=Clarence "Pine Top" Smith - Pine Top's Blues
TTITLE4=Clarence "Pine Top" Smith - Pine Top's Boogie Woogie
TTITLE5=Clarence "Pine Top" Smith - Jump Steady Blues
TTITLE6=Montana Taylor - Detroit Rocks
TTITLE7=Will Ezell - Playing The Dozen
TTITLE8=Raymond Barrow - Walking Blues
TTITLE9=Roosevelt Sykes - Boot That Thing
TTITLE10=Will Ezell - Pitchin' Boogie
TTITLE11=Romeo Nelson - Head Rag Hop
TTITLE12=Rufus "Speckled Hen" Perryman - The Dirty Dozen
TTITLE13=Rufus "Speckled Hen" Perryman - Dearborn St. Breakdown
TTITLE14=Wesley Wallace - No. 29
TTITLE15=Rufus "Speckled Hen" Perryman - The Right String But The Wrong Yo Yo
TTITLE16=Little Brother Montgomery - No Special Rider Blues
TTITLE17=Cleo Brown - Pinetop's Boogie Woogie
TTITLE18=Cripple Clarence Lofton - Strut That Thing
TTITLE19=Meade Lux Lewis - Yancey Special
TTITLE20=Meade Lux Lewis - Celeste Blues
TTITLE21=Ammons, Albert - Boogie Woogie Stomp
TTITLE22=Mary Lou Williams - Mr. Freddie Blues
TTITLE23=Bob Crosby and His Orchestra (Bob Zurke) - Honky Tonk Train Blues
TTITLE24=Count Basie - The Dirty Dozens
TTITLE25=Count Basie - Boogie Woogie
EXTD=
EXTT0=
EXTT1=
EXTT2=
EXTT3=
EXTT4=
EXTT5=
EXTT6=
EXTT7=
EXTT8=
EXTT9=
EXTT10=
EXTT11=
EXTT12=
EXTT13=
EXTT14=
EXTT15=
EXTT16=
EXTT17=
EXTT18=
EXTT19=
EXTT20=
EXTT21=
EXTT22=
EXTT23=
EXTT24=
EXTT25=
PLAYORDER=
